<?xml version="1.0" encoding="utf-8"?>
<!-- Uploaded to: SVG Repo, www.svgrepo.com, Generator: SVG Repo Mixer Tools -->
<svg fill="#000000" height="800px" width="800px" version="1.2" baseProfile="tiny" id="Layer_1" xmlns="http://www.w3.org/2000/svg" xmlns:xlink="http://www.w3.org/1999/xlink"
	  viewBox="-351 153 256 256" xml:space="preserve">
<path d="M-122.1,236.9l4.4-11.3h-20.6l3.7,11.3H-122.1z M-117.7,240.6L-117.7,240.6l-20.6-0.1v0.1c-7.2,3.7-12.1,11.2-12.1,19.8
	c0,12.4,10,22.3,22.3,22.3c12.4,0,22.3-10,22.3-22.3C-105.6,251.8-110.5,244.3-117.7,240.6z M-126.6,271.2v3.2h-3.1v-2.9
	c-2.1-0.1-4.1-0.7-5.3-1.3l0.9-3.7c1.3,0.7,3.2,1.3,5.2,1.3c1.7,0,3.1-0.7,3.1-2c0-1.2-1.1-2-3.3-2.7c-3.3-1.1-5.6-2.7-5.6-5.7
	c0-2.8,2-4.9,5.3-5.6v-2.9h3.1v2.8c2.1,0.1,3.5,0.5,4.5,1.1l-0.9,3.6c-0.8-0.4-2.3-1.1-4.5-1.1c-2,0-2.7,0.9-2.7,1.7
	c0,1.1,1.1,1.7,3.7,2.7c3.7,1.3,5.2,3.1,5.2,5.8C-121,268.1-123,270.5-126.6,271.2z M-302.2,208.3l6.9-18.3h-33.2l5.8,18.3H-302.2z
	 M-295.3,214.3v-0.1h-33.4v0.1c-11.7,6-19.5,18.2-19.5,32.2c0,20.1,16.2,36.3,36.3,36.3c20.1,0,36.3-16.2,36.3-36.3
	C-275.6,232.5-283.6,220.3-295.3,214.3z M-309.6,264v5.2h-4.9v-4.8c-3.5-0.1-6.6-1.1-8.6-2.1l1.5-6c2.1,1.2,5.2,2.3,8.4,2.3
	c2.9,0,4.9-1.1,4.9-3.2c0-1.9-1.6-3.2-5.3-4.4c-5.5-1.9-9.2-4.4-9.2-9.3c0-4.5,3.2-8,8.6-9v-4.8h4.9v4.5c3.5,0.1,5.7,0.8,7.3,1.7
	l-1.5,5.7c-1.3-0.5-3.7-1.7-7.3-1.7c-3.3,0-4.4,1.5-4.4,2.8c0,1.7,1.7,2.8,6.1,4.4c6,2.1,8.5,4.9,8.5,9.4
	C-300.6,259.1-303.8,262.9-309.6,264z M-218.3,238.7c14.6,0,26.3-11.7,26.3-26.3c0-14.6-11.7-26.3-26.3-26.3s-26.3,11.7-26.3,26.3
	C-244.6,227-232.9,238.7-218.3,238.7z M-279.3,315.1h-47.3c-15.4,0-16.2-23.4,0.3-23.4h40.8l23.7-34.6c6.9-9.6,14.9-14.1,26.1-14.1
	h35.1c11.2,0,19.1,4.3,26.1,14.1l23.7,34.6h41.2c16.5,0,15.4,23.4,0.5,23.4h-47.3c-3.7,0-8.2-1.3-10.9-5.3l-18.1-25.8l-0.1,67.3
	h-64.7l-0.1-67.3l-17.9,25.8C-271.1,313.7-275.6,315.1-279.3,315.1z"/>
</svg>