<svg id="SvgjsSvg1011" width="288" height="288" xmlns="http://www.w3.org/2000/svg" version="1.1" xmlns:xlink="http://www.w3.org/1999/xlink" xmlns:svgjs="http://svgjs.com/svgjs"><defs id="SvgjsDefs1012"></defs><g id="SvgjsG1013"><svg xmlns="http://www.w3.org/2000/svg" viewBox="0 0 512 512" width="288" height="288"><path d="M311.069 130.515c-.963-5.641-5.851-9.768-11.578-9.768H35.43c-7.61 0-13.772 6.169-13.772 13.765 0 7.61 6.162 13.772 13.772 13.772h64.263c7.61 0 13.772 6.17 13.772 13.773 0 7.603-6.162 13.772-13.772 13.772H13.772C6.169 175.829 0 181.998 0 189.601c0 7.603 6.169 13.764 13.772 13.764h117.114c6.72 0 12.172 5.46 12.172 12.18 0 6.72-5.452 12.172-12.172 12.172H68.665c-7.61 0-13.772 6.17-13.772 13.773 0 7.602 6.162 13.772 13.772 13.772h45.857c6.726 0 12.179 5.452 12.179 12.172 0 6.719-5.453 12.172-12.179 12.172H51.215c-7.61 0-13.772 6.169-13.772 13.772 0 7.603 6.162 13.772 13.772 13.772h87.014l5.488 31.042h31.52c-1.854 4.504-2.911 9.421-2.911 14.598 0 21.245 17.218 38.464 38.464 38.464 21.237 0 38.456-17.219 38.456-38.464 0-5.177-1.057-10.094-2.911-14.598h100.04L311.069 130.515zM227.342 352.789c0 9.146-7.407 16.553-16.553 16.553-9.152 0-16.56-7.407-16.56-16.553 0-6.364 3.627-11.824 8.892-14.598h15.329C223.714 340.965 227.342 346.424 227.342 352.789zM511.598 314.072l-15.799-77.941-57.689-88.759H333.074l32.534 190.819h38.42c-1.846 4.504-2.904 9.421-2.904 14.598 0 21.245 17.219 38.464 38.456 38.464 21.246 0 38.464-17.219 38.464-38.464 0-5.177-1.057-10.094-2.91-14.598h16.741c6.039 0 11.759-2.708 15.582-7.386C511.273 326.136 512.8 319.988 511.598 314.072zM392.529 182.882h26.314l34.162 52.547h-51.512L392.529 182.882zM456.14 352.789c0 9.146-7.407 16.553-16.56 16.553-9.138 0-16.552-7.407-16.552-16.553 0-6.364 3.635-11.824 8.892-14.598h15.329C452.513 340.965 456.14 346.424 456.14 352.789z" fill="#f2a516" class="svgShape color000000-0 selectable"></path></svg></g></svg>