<svg width="597" height="597" viewBox="0 0 597 597" fill="none" xmlns="http://www.w3.org/2000/svg">
<g clip-path="url(#clip0_2004_2)">
<path d="M105.336 262.247C106.181 261.997 107.052 261.845 107.932 261.792L122.184 260.942C123.587 258.935 125.638 257.442 128.024 256.653L104.987 164.506C192.574 163.28 265.498 141.769 329.388 107.763C393.279 141.769 466.203 163.278 553.79 164.506L537.945 227.877C553.135 233.681 563.015 238.203 564.171 238.737C566.018 239.591 567.54 240.893 568.668 242.459C569.092 242.516 569.484 242.571 569.889 242.626L597.887 130.638L554.274 130.026C478.515 128.965 410.278 111.733 345.666 77.3407L329.387 68.6804L313.109 77.3444C248.495 111.734 180.258 128.969 104.501 130.03L60.8875 130.641L94.6498 265.68C97.7701 264.592 101.31 263.44 105.336 262.247Z" fill="url(#paint0_linear_2004_2)"/>
<path d="M457.099 469.68C426.227 504.206 381.267 528.291 329.887 535.534C278.508 528.291 233.548 504.204 202.676 469.68H158.887C170.258 486.597 184.243 502.112 200.651 515.784C235.319 544.665 278.354 563.414 325.1 570.006L329.887 570.68L334.673 570.006C381.421 563.414 424.454 544.666 459.122 515.784C475.532 502.114 489.515 486.597 500.887 469.68H457.099Z" fill="url(#paint1_linear_2004_2)"/>
<path d="M384.722 144.68L365.887 198.68C367.032 198.658 368.219 198.658 369.408 198.658L385.887 145.117C385.506 144.979 385.125 144.842 384.722 144.68Z" fill="url(#paint2_linear_2004_2)"/>
<path d="M366.794 138.68L352.887 198.68C354.023 198.657 355.181 198.635 356.359 198.612L367.887 139.13C367.514 138.995 367.166 138.839 366.794 138.68Z" fill="url(#paint3_linear_2004_2)"/>
<path d="M306.887 131.19L314.155 201.68C315.378 201.472 316.622 201.265 317.887 201.079L307.931 130.68C307.576 130.867 307.242 131.027 306.887 131.19Z" fill="url(#paint4_linear_2004_2)"/>
<path d="M339.887 198.68C341.08 198.635 342.341 198.589 343.603 198.566L349.887 130.114C349.537 129.977 349.21 129.841 348.883 129.68L339.887 198.68Z" fill="url(#paint5_linear_2004_2)"/>
<path d="M329.003 120.68C328.887 120.748 328.75 120.817 328.636 120.862L326.887 199.68C328.175 199.566 329.508 199.475 330.887 199.384L329.416 120.884C329.279 120.817 329.141 120.75 329.003 120.68Z" fill="url(#paint6_linear_2004_2)"/>
<path d="M402.61 151.68L377.887 198.68C379.116 198.657 380.394 198.657 381.672 198.657L403.887 152.065C403.446 151.951 403.028 151.839 402.61 151.68Z" fill="url(#paint7_linear_2004_2)"/>
<path d="M478.317 208.68L501.887 192.68L476.887 208.342C477.364 208.455 477.842 208.567 478.317 208.68Z" fill="url(#paint8_linear_2004_2)"/>
<path d="M453.887 203.297C454.574 203.423 455.26 203.55 455.944 203.68L487.887 174.68L453.887 203.297Z" fill="url(#paint9_linear_2004_2)"/>
<path d="M504.887 216.517C505.054 216.572 505.218 216.626 505.383 216.68L513.887 211.68L504.887 216.517Z" fill="url(#paint10_linear_2004_2)"/>
<path d="M420.777 156.68L394.887 198.68H396.337L398.285 198.658L421.887 157.005C421.524 156.888 421.14 156.796 420.777 156.68Z" fill="url(#paint11_linear_2004_2)"/>
<path d="M440.994 161.68L412.887 198.612C413.915 198.634 414.942 198.658 415.969 198.68L441.887 161.887C441.575 161.843 441.285 161.75 440.994 161.68Z" fill="url(#paint12_linear_2004_2)"/>
<path d="M214.887 162.865L258.581 221.68C259.697 221.172 260.792 220.639 261.887 220.153L215.754 162.68C215.457 162.749 215.184 162.819 214.887 162.865Z" fill="url(#paint13_linear_2004_2)"/>
<path d="M133.887 235.702L172.131 250.68C173.406 250.589 174.659 250.497 175.887 250.406L133.887 235.68V235.702Z" fill="url(#paint14_linear_2004_2)"/>
<path d="M203.87 247.68C204.787 247.266 205.801 246.804 206.887 246.308L142.887 215.68L203.87 247.68Z" fill="url(#paint15_linear_2004_2)"/>
<path d="M220.748 239.68C220.815 239.648 220.884 239.614 220.95 239.582C221.934 239.108 222.909 238.639 223.887 238.168L155.887 194.68L220.748 239.68Z" fill="url(#paint16_linear_2004_2)"/>
<path d="M189.887 167.75L245.591 226.68C246.698 226.153 247.805 225.649 248.887 225.143L190.326 167.68C190.188 167.704 190.048 167.726 189.887 167.75Z" fill="url(#paint17_linear_2004_2)"/>
<path d="M252.887 152.073L280.432 211.68C281.615 211.196 282.75 210.735 283.887 210.297L254.093 151.68C253.699 151.842 253.304 151.957 252.887 152.073Z" fill="url(#paint18_linear_2004_2)"/>
<path d="M270.887 145.127L291.37 207.68C292.611 207.234 293.784 206.835 294.887 206.46L272.107 144.68C271.692 144.845 271.301 144.986 270.887 145.127Z" fill="url(#paint19_linear_2004_2)"/>
<path d="M233.887 157.981L270.363 216.68C271.537 216.174 272.713 215.689 273.887 215.205L235.037 157.68C234.654 157.772 234.271 157.887 233.887 157.981Z" fill="url(#paint20_linear_2004_2)"/>
<path d="M233.671 233.68C234.748 233.177 235.821 232.676 236.887 232.178L168.887 178.68L233.671 233.68Z" fill="url(#paint21_linear_2004_2)"/>
<path d="M287.887 140.154L303.018 203.68C304.325 203.387 305.606 203.093 306.887 202.846L289.143 139.68C288.726 139.862 288.307 140.019 287.887 140.154Z" fill="url(#paint22_linear_2004_2)"/>
<path d="M471.887 157.68L463.6 166.328L431.887 199.406C432.763 199.497 433.64 199.567 434.515 199.68L464.118 166.42L471.887 157.68Z" fill="url(#paint23_linear_2004_2)"/>
<path d="M228.887 274.62C228.887 274.62 259.335 239.294 325.893 230.632C391.442 221.972 406.11 229.27 410.864 236.082C415.618 242.894 402.267 273.744 402.267 273.744L242.746 279.68L228.887 274.62Z" fill="url(#paint24_linear_2004_2)"/>
<path d="M450.53 265.54C450.53 265.54 446.512 244.13 458.567 242.894C482.979 240.419 528.887 260.306 528.887 260.306C528.887 260.306 486.395 268.68 484.486 268.68C482.677 268.68 450.53 265.54 450.53 265.54Z" fill="url(#paint25_linear_2004_2)"/>
<path d="M514.887 244.505C500.056 240.079 479.776 234.498 457.179 229.592C448.501 227.763 440.128 233.536 439.118 241.906L435.789 271.925L414.603 270.77L425.296 240.367C428.223 231.998 422.573 223.05 413.391 221.798C382.116 217.469 349.932 216.122 322.691 221.318C237.34 237.577 203.541 279.334 203.541 279.334L187.197 280.104L174.887 280.68C174.887 280.68 211.208 227.956 314.217 210.35C355.683 203.229 397.552 207.271 433.972 215.64C436.596 216.219 439.22 216.892 441.843 217.565C442.716 217.821 443.559 218.046 444.366 218.238C444.432 218.303 444.5 218.335 444.566 218.335C472.816 225.647 497.333 235.557 514.887 244.505Z" fill="url(#paint26_linear_2004_2)"/>
<path d="M444.887 216.575C428.17 214.048 392.719 207.047 354.348 208.408C331.184 209.186 306.813 213.951 284.857 221.535C222.618 243.316 204.289 269.472 195.426 279.097L175.887 279.68C175.887 279.68 210.834 224.743 313.56 206.949C354.953 199.755 398.159 205.491 434.514 213.951C437.133 214.534 439.752 215.214 442.369 215.895C443.243 216.155 444.082 216.382 444.887 216.575Z" fill="url(#paint27_linear_2004_2)"/>
<path d="M570.078 286.68C570.078 286.68 547.366 289.302 544.136 292.196C540.804 295.18 538.887 303.68 538.887 303.68L581.887 298.344L570.078 286.68Z" fill="url(#paint28_linear_2004_2)"/>
<path d="M21.5443 313.596L68.8875 311.68C68.8875 311.68 60.8095 324.888 46.9034 326.324C33.0991 327.665 9.88745 324.792 9.88745 324.792L21.5443 313.596Z" fill="url(#paint29_linear_2004_2)"/>
<path d="M590.887 311.464C590.887 311.464 581.181 298.817 567.229 287.126C553.985 276.107 535.988 271.507 518.802 274.958C512.433 276.203 505.658 277.066 498.48 277.544C468.049 279.365 377.561 284.061 282.525 286.935C247.645 288.084 212.663 288.659 181.321 289.235C173.134 289.425 165.045 288.084 157.158 285.881C153.215 284.826 148.97 284.251 144.622 284.251C139.566 284.251 134.612 285.018 129.962 286.551C122.38 289.043 114.594 290.766 106.708 291.055C87.803 291.821 74.1543 292.78 68.0871 294.217C30.2752 303.414 7.02162 326.987 3.9886 331.49C3.92117 331.618 3.88745 331.68 3.88745 331.68C3.88745 331.68 10.5602 290.192 73.7489 276.681C91.3405 272.946 198.509 271.125 242.995 269.784C247.645 264.992 259.172 254.07 269.786 251.292C283.637 247.747 317.608 247.747 317.304 252.729C317.002 257.807 305.07 265.855 291.221 266.429C277.369 267.1 263.822 265.28 263.822 265.28L255.835 269.496C369.979 266.429 530.225 265.663 583.912 244.68C583.641 244.935 583.372 245.19 583.103 245.447C580.677 247.459 573.195 253.591 561.265 259.914C567.431 265.088 589.168 284.922 590.887 311.464Z" fill="url(#paint30_linear_2004_2)"/>
<path d="M582.887 245.68C582.617 245.937 582.349 246.192 582.08 246.447C563.712 261.108 467.33 269.252 406.471 272.222C344.605 275.097 128.124 276.246 78.5711 282.76C23.0629 290.044 5.60323 329.806 3.98842 332.488C3.92111 332.616 3.88745 332.68 3.88745 332.68C3.88745 332.68 10.5484 291.193 73.6255 277.683C91.186 273.946 198.166 272.126 242.573 270.785C247.215 265.994 258.721 255.071 269.316 252.291C283.143 248.747 317.054 248.747 316.751 253.73C316.449 258.808 304.538 266.856 290.713 267.431C276.886 268.101 263.363 266.282 263.363 266.282L255.39 270.497C369.333 267.431 529.296 266.664 582.887 245.68Z" fill="url(#paint31_linear_2004_2)"/>
<path d="M179.887 317.346L418.887 314.68L189.243 326.68L179.887 317.346Z" fill="url(#paint32_linear_2004_2)"/>
<path d="M195.887 340.68C185.089 322.032 166.037 309.664 144.336 309.664C122.738 309.664 103.686 322.032 92.8875 340.68C97.3693 313.945 118.765 293.68 144.336 293.68C170.01 293.68 191.406 313.945 195.887 340.68Z" fill="url(#paint33_linear_2004_2)"/>
<path d="M531.887 340.68C521.182 322.032 502.298 309.664 480.887 309.664C459.376 309.664 440.593 322.032 429.887 340.68C434.231 313.945 455.438 293.68 480.887 293.68C506.337 293.68 527.445 313.945 531.887 340.68Z" fill="url(#paint34_linear_2004_2)"/>
<path d="M94.235 400.488H120.915L118.706 412.967H74.8875L76.9194 401.38L110.137 362.873H83.6336L85.8422 350.393H129.661L127.629 361.981L94.235 400.488ZM160.203 362.516C166.564 362.516 171.599 364.269 175.31 367.775C179.079 371.222 180.964 375.946 180.964 381.948C180.964 383.909 180.817 385.662 180.522 387.207C180.287 388.574 179.933 390.029 179.462 391.575H145.273C145.214 391.931 145.184 392.496 145.184 393.268C145.184 395.883 145.891 397.873 147.304 399.24C148.718 400.607 150.603 401.29 152.959 401.29C156.728 401.29 159.614 399.686 161.616 396.477H177.695C175.575 401.528 172.129 405.658 167.359 408.867C162.588 412.076 157.229 413.68 151.28 413.68C144.919 413.68 139.825 411.898 135.996 408.332C132.227 404.767 130.342 399.924 130.342 393.803C130.342 391.961 130.519 390.059 130.872 388.098C131.756 382.928 133.582 378.412 136.35 374.549C139.118 370.687 142.563 367.716 146.686 365.636C150.809 363.556 155.314 362.516 160.203 362.516ZM165.68 383.82C165.798 382.988 165.857 382.423 165.857 382.126C165.857 379.749 165.121 377.937 163.648 376.689C162.176 375.381 160.232 374.728 157.817 374.728C155.226 374.728 152.929 375.53 150.927 377.134C148.983 378.679 147.569 380.908 146.686 383.82H165.68ZM215.525 362.516C221.886 362.516 226.922 364.269 230.632 367.775C234.401 371.222 236.286 375.946 236.286 381.948C236.286 383.909 236.139 385.662 235.844 387.207C235.609 388.574 235.255 390.029 234.784 391.575H200.595C200.536 391.931 200.506 392.496 200.506 393.268C200.506 395.883 201.213 397.873 202.627 399.24C204.04 400.607 205.925 401.29 208.281 401.29C212.05 401.29 214.936 399.686 216.939 396.477H233.017C230.897 401.528 227.452 405.658 222.681 408.867C217.91 412.076 212.551 413.68 206.602 413.68C200.241 413.68 195.147 411.898 191.319 408.332C187.549 404.767 185.665 399.924 185.665 393.803C185.665 391.961 185.841 390.059 186.195 388.098C187.078 382.928 188.904 378.412 191.672 374.549C194.44 370.687 197.886 367.716 202.008 365.636C206.131 363.556 210.637 362.516 215.525 362.516ZM221.002 383.82C221.12 382.988 221.179 382.423 221.179 382.126C221.179 379.749 220.443 377.937 218.97 376.689C217.498 375.381 215.555 374.728 213.14 374.728C210.548 374.728 208.251 375.53 206.249 377.134C204.305 378.679 202.892 380.908 202.008 383.82H221.002ZM278.887 362.694C283.834 362.694 287.721 364.091 290.548 366.884C293.375 369.677 294.789 373.569 294.789 378.561C294.789 380.224 294.612 382.007 294.259 383.909L289.135 412.967H274.116L278.887 385.959C279.063 384.949 279.152 384.057 279.152 383.285C279.152 380.789 278.445 378.858 277.031 377.491C275.677 376.124 273.763 375.441 271.289 375.441C268.344 375.441 265.871 376.362 263.868 378.204C261.866 380.046 260.57 382.631 259.981 385.959V385.513L255.21 412.967H240.103L248.761 363.229H263.868L262.72 369.914C264.663 367.716 267.019 365.963 269.787 364.655C272.614 363.348 275.647 362.694 278.887 362.694ZM301.93 388.009C302.813 382.899 304.551 378.412 307.142 374.549C309.734 370.687 312.855 367.716 316.507 365.636C320.158 363.556 324.016 362.516 328.08 362.516C331.555 362.516 334.47 363.229 336.826 364.655C339.182 366.081 340.89 367.953 341.95 370.271L343.187 363.229H358.294L349.548 412.967H334.441L335.766 405.925C333.881 408.243 331.496 410.115 328.61 411.541C325.724 412.967 322.544 413.68 319.069 413.68C315.594 413.68 312.502 412.878 309.793 411.274C307.142 409.669 305.081 407.411 303.609 404.499C302.136 401.528 301.4 398.052 301.4 394.07C301.4 392.169 301.577 390.148 301.93 388.009ZM338.858 388.098C339.035 387.029 339.123 386.048 339.123 385.157C339.123 382.245 338.269 379.957 336.561 378.293C334.912 376.629 332.792 375.797 330.2 375.797C327.197 375.797 324.458 376.897 321.984 379.095C319.511 381.235 317.95 384.206 317.302 388.009C317.125 389.079 317.037 390.059 317.037 390.951C317.037 393.862 317.862 396.18 319.511 397.903C321.219 399.567 323.339 400.399 325.871 400.399C328.875 400.399 331.614 399.3 334.088 397.101C336.561 394.902 338.151 391.901 338.858 388.098ZM381.856 395.853C381.797 396.15 381.768 396.536 381.768 397.012C381.768 398.081 382.062 398.854 382.651 399.329C383.299 399.805 384.33 400.042 385.743 400.042H391.133L388.836 412.967H381.15C371.255 412.967 366.308 408.778 366.308 400.399C366.308 399.151 366.455 397.576 366.749 395.675L370.283 375.886H364.276L366.484 363.229H372.492L374.612 351.106H389.719L387.599 363.229H397.493L395.285 375.886H385.39L381.856 395.853ZM422.469 381.591C423.529 375.411 425.797 369.914 429.272 365.101C432.805 360.228 437.164 356.455 442.347 353.781C447.53 351.047 453.125 349.68 459.132 349.68C466.494 349.68 472.443 351.641 476.978 355.563C481.572 359.485 484.163 364.834 484.752 371.608H468.143C467.378 369.053 465.964 367.121 463.903 365.814C461.9 364.447 459.427 363.764 456.482 363.764C451.829 363.764 447.795 365.398 444.379 368.666C440.963 371.875 438.783 376.184 437.841 381.591C437.547 383.255 437.399 384.711 437.399 385.959C437.399 390.119 438.548 393.417 440.845 395.853C443.142 398.289 446.293 399.508 450.298 399.508C453.184 399.508 455.864 398.824 458.337 397.458C460.87 396.091 462.99 394.13 464.698 391.575H481.307C478.362 398.349 473.915 403.697 467.967 407.619C462.018 411.482 455.363 413.413 448.001 413.413C442.7 413.413 438.077 412.373 434.131 410.293C430.185 408.213 427.151 405.272 425.031 401.469C422.911 397.666 421.851 393.238 421.851 388.187C421.851 385.929 422.057 383.73 422.469 381.591ZM489.055 388.009C489.939 382.899 491.676 378.412 494.268 374.549C496.859 370.687 499.981 367.716 503.632 365.636C507.284 363.556 511.142 362.516 515.205 362.516C518.68 362.516 521.596 363.229 523.952 364.655C526.307 366.081 528.015 367.953 529.076 370.271L530.312 363.229H545.419L536.673 412.967H521.566L522.891 405.925C521.007 408.243 518.621 410.115 515.735 411.541C512.85 412.967 509.669 413.68 506.194 413.68C502.719 413.68 499.627 412.878 496.918 411.274C494.268 409.669 492.206 407.411 490.734 404.499C489.262 401.528 488.525 398.052 488.525 394.07C488.525 392.169 488.702 390.148 489.055 388.009ZM525.984 388.098C526.16 387.029 526.249 386.048 526.249 385.157C526.249 382.245 525.395 379.957 523.687 378.293C522.037 376.629 519.917 375.797 517.326 375.797C514.322 375.797 511.583 376.897 509.11 379.095C506.636 381.235 505.075 384.206 504.427 388.009C504.251 389.079 504.162 390.059 504.162 390.951C504.162 393.862 504.987 396.18 506.636 397.903C508.344 399.567 510.464 400.399 512.997 400.399C516.001 400.399 518.739 399.3 521.213 397.101C523.687 394.902 525.277 391.901 525.984 388.098ZM570.66 372.232C572.957 369.261 575.578 366.943 578.523 365.279C581.527 363.556 584.648 362.694 587.887 362.694L585.06 378.828H580.908C577.139 378.828 574.165 379.66 571.985 381.324C569.806 382.928 568.363 385.781 567.657 389.881L563.593 412.967H548.486L557.143 363.229H572.25L570.66 372.232Z" fill="url(#paint35_linear_2004_2)"/>
<path d="M245.184 437.621C248.446 437.621 251.296 438.294 253.735 439.642C256.203 440.959 258.098 442.816 259.42 445.211C260.742 447.606 261.404 450.346 261.404 453.43C261.404 456.484 260.728 459.209 259.376 461.604C258.054 464 256.159 465.886 253.691 467.263C251.252 468.611 248.416 469.284 245.184 469.284H232.887V437.621H245.184ZM244.523 461.514C247.05 461.514 249.033 460.811 250.473 459.404C251.913 457.996 252.633 456.005 252.633 453.43C252.633 450.825 251.913 448.819 250.473 447.412C249.033 445.975 247.05 445.256 244.523 445.256H241.526V461.514H244.523ZM288.921 456.394C288.921 457.083 288.877 457.772 288.788 458.46H272.437C272.525 459.838 272.892 460.871 273.539 461.559C274.215 462.218 275.067 462.547 276.095 462.547C277.535 462.547 278.563 461.889 279.18 460.571H288.392C288.01 462.308 287.261 463.865 286.144 465.242C285.057 466.59 283.676 467.653 282.001 468.431C280.326 469.21 278.475 469.599 276.448 469.599C274.009 469.599 271.834 469.075 269.925 468.027C268.044 466.979 266.56 465.482 265.473 463.536C264.415 461.589 263.886 459.299 263.886 456.664C263.886 454.029 264.415 451.753 265.473 449.837C266.531 447.891 268 446.394 269.881 445.346C271.79 444.298 273.979 443.774 276.448 443.774C278.886 443.774 281.046 444.283 282.927 445.301C284.807 446.319 286.276 447.786 287.334 449.702C288.392 451.589 288.921 453.819 288.921 456.394ZM280.106 454.194C280.106 453.116 279.753 452.277 279.048 451.679C278.343 451.05 277.461 450.735 276.404 450.735C275.346 450.735 274.479 451.035 273.803 451.634C273.127 452.202 272.687 453.056 272.481 454.194H280.106ZM307.046 461.784V469.284H303.3C296.983 469.284 293.824 466.096 293.824 459.718V451.409H290.783V444.088H293.824V437.98H302.507V444.088H307.002V451.409H302.507V459.853C302.507 460.541 302.653 461.035 302.945 461.335C303.271 461.634 303.799 461.784 304.534 461.784H307.046ZM309.597 456.664C309.597 454.059 310.052 451.783 310.963 449.837C311.904 447.891 313.167 446.394 314.754 445.346C316.37 444.298 318.162 443.774 320.131 443.774C321.835 443.774 323.304 444.118 324.538 444.807C325.772 445.496 326.727 446.424 327.403 447.591V444.088H336.042V469.284H327.403V465.781C326.727 466.949 325.758 467.877 324.494 468.566C323.26 469.254 321.806 469.599 320.131 469.599C318.162 469.599 316.37 469.075 314.754 468.027C313.167 466.979 311.904 465.482 310.963 463.536C310.052 461.559 309.597 459.269 309.597 456.664ZM327.403 456.664C327.403 455.047 326.962 453.774 326.081 452.846C325.229 451.918 324.171 451.454 322.908 451.454C321.615 451.454 320.542 451.918 319.69 452.846C318.838 453.745 318.412 455.017 318.412 456.664C318.412 458.281 318.838 459.568 319.69 460.526C320.542 461.455 321.615 461.919 322.908 461.919C324.171 461.919 325.229 461.455 326.081 460.526C326.962 459.598 327.403 458.311 327.403 456.664ZM345.329 441.753C343.801 441.753 342.567 441.334 341.626 440.495C340.715 439.627 340.26 438.549 340.26 437.261C340.26 435.944 340.715 434.851 341.626 433.983C342.567 433.114 343.801 432.68 345.329 432.68C346.827 432.68 348.032 433.114 348.943 433.983C349.883 434.851 350.353 435.944 350.353 437.261C350.353 438.549 349.883 439.627 348.943 440.495C348.032 441.334 346.827 441.753 345.329 441.753ZM349.604 444.088V469.284H340.965V444.088H349.604ZM363.16 436.049V469.284H354.522V436.049H363.16ZM372.443 441.753C370.916 441.753 369.681 441.334 368.741 440.495C367.83 439.627 367.375 438.549 367.375 437.261C367.375 435.944 367.83 434.851 368.741 433.983C369.681 433.114 370.916 432.68 372.443 432.68C373.942 432.68 375.147 433.114 376.058 433.983C376.998 434.851 377.468 435.944 377.468 437.261C377.468 438.549 376.998 439.627 376.058 440.495C375.147 441.334 373.942 441.753 372.443 441.753ZM376.719 444.088V469.284H368.08V444.088H376.719ZM397.814 443.864C400.664 443.864 402.926 444.837 404.601 446.783C406.276 448.699 407.113 451.304 407.113 454.598V469.284H398.475V455.766C398.475 454.328 398.108 453.206 397.373 452.397C396.638 451.559 395.654 451.14 394.42 451.14C393.127 451.14 392.113 451.559 391.379 452.397C390.644 453.206 390.277 454.328 390.277 455.766V469.284H381.638V444.088H390.277V447.681C391.041 446.543 392.069 445.63 393.362 444.942C394.655 444.223 396.139 443.864 397.814 443.864ZM420.977 443.774C422.651 443.774 424.106 444.118 425.34 444.807C426.603 445.496 427.573 446.424 428.249 447.591V444.088H436.887V469.015C436.887 471.38 436.447 473.506 435.565 475.393C434.684 477.309 433.303 478.836 431.422 479.974C429.571 481.111 427.221 481.68 424.37 481.68C420.551 481.68 417.495 480.767 415.203 478.941C412.911 477.114 411.603 474.629 411.28 471.485H419.787C419.963 472.294 420.404 472.922 421.109 473.371C421.814 473.821 422.725 474.045 423.841 474.045C426.78 474.045 428.249 472.368 428.249 469.015V465.781C427.573 466.949 426.603 467.877 425.34 468.566C424.106 469.254 422.651 469.599 420.977 469.599C419.008 469.599 417.216 469.075 415.6 468.027C414.013 466.979 412.749 465.482 411.809 463.536C410.898 461.559 410.443 459.269 410.443 456.664C410.443 454.059 410.898 451.783 411.809 449.837C412.749 447.891 414.013 446.394 415.6 445.346C417.216 444.298 419.008 443.774 420.977 443.774ZM428.249 456.664C428.249 455.047 427.808 453.774 426.927 452.846C426.075 451.918 425.017 451.454 423.753 451.454C422.46 451.454 421.388 451.918 420.536 452.846C419.684 453.745 419.258 455.017 419.258 456.664C419.258 458.281 419.684 459.568 420.536 460.526C421.388 461.455 422.46 461.919 423.753 461.919C425.017 461.919 426.075 461.455 426.927 460.526C427.808 459.598 428.249 458.311 428.249 456.664Z" fill="url(#paint36_linear_2004_2)"/>
</g>
<defs>
<linearGradient id="paint0_linear_2004_2" x1="317.956" y1="70.8542" x2="358.277" y2="282.87" gradientUnits="userSpaceOnUse">
<stop stop-color="#F4F4F4"/>
<stop offset="0.2325" stop-color="#DCDCDC"/>
<stop offset="0.721" stop-color="#9E9E9E"/>
<stop offset="1" stop-color="#797979"/>
</linearGradient>
<linearGradient id="paint1_linear_2004_2" x1="323.888" y1="437.977" x2="348.798" y2="567.623" gradientUnits="userSpaceOnUse">
<stop stop-color="#E38805"/>
<stop offset="0.2294" stop-color="#FFCD28"/>
<stop offset="0.711" stop-color="#E38805"/>
<stop offset="1" stop-color="#AF3115"/>
</linearGradient>
<linearGradient id="paint2_linear_2004_2" x1="375.887" y1="256.011" x2="375.887" y2="105.887" gradientUnits="userSpaceOnUse">
<stop stop-color="#FFCD28"/>
<stop offset="0.2294" stop-color="#E38805"/>
<stop offset="0.711" stop-color="#AF3115"/>
<stop offset="1" stop-color="#E38805"/>
</linearGradient>
<linearGradient id="paint3_linear_2004_2" x1="360.387" y1="262.381" x2="360.387" y2="95.5773" gradientUnits="userSpaceOnUse">
<stop stop-color="#FFCD28"/>
<stop offset="0.2294" stop-color="#E38805"/>
<stop offset="0.711" stop-color="#AF3115"/>
<stop offset="1" stop-color="#E38805"/>
</linearGradient>
<linearGradient id="paint4_linear_2004_2" x1="312.388" y1="277.06" x2="312.388" y2="79.6736" gradientUnits="userSpaceOnUse">
<stop stop-color="#FFCD28"/>
<stop offset="0.2294" stop-color="#E38805"/>
<stop offset="0.711" stop-color="#AF3115"/>
<stop offset="1" stop-color="#E38805"/>
</linearGradient>
<linearGradient id="paint5_linear_2004_2" x1="344.888" y1="271.935" x2="344.888" y2="80.1119" gradientUnits="userSpaceOnUse">
<stop stop-color="#FFCD28"/>
<stop offset="0.2294" stop-color="#E38805"/>
<stop offset="0.711" stop-color="#AF3115"/>
<stop offset="1" stop-color="#E38805"/>
</linearGradient>
<linearGradient id="paint6_linear_2004_2" x1="328.887" y1="283.552" x2="328.887" y2="63.9278" gradientUnits="userSpaceOnUse">
<stop stop-color="#FFCD28"/>
<stop offset="0.2294" stop-color="#E38805"/>
<stop offset="0.711" stop-color="#AF3115"/>
<stop offset="1" stop-color="#E38805"/>
</linearGradient>
<linearGradient id="paint7_linear_2004_2" x1="390.887" y1="248.578" x2="390.887" y2="117.915" gradientUnits="userSpaceOnUse">
<stop stop-color="#FFCD28"/>
<stop offset="0.2294" stop-color="#E38805"/>
<stop offset="0.711" stop-color="#AF3115"/>
<stop offset="1" stop-color="#E38805"/>
</linearGradient>
<linearGradient id="paint8_linear_2004_2" x1="489.388" y1="225.668" x2="489.388" y2="181.186" gradientUnits="userSpaceOnUse">
<stop stop-color="#FFCD28"/>
<stop offset="0.2294" stop-color="#E38805"/>
<stop offset="0.711" stop-color="#AF3115"/>
<stop offset="1" stop-color="#E38805"/>
</linearGradient>
<linearGradient id="paint9_linear_2004_2" x1="470.887" y1="234.469" x2="470.887" y2="153.847" gradientUnits="userSpaceOnUse">
<stop stop-color="#FFCD28"/>
<stop offset="0.2294" stop-color="#E38805"/>
<stop offset="0.711" stop-color="#AF3115"/>
<stop offset="1" stop-color="#E38805"/>
</linearGradient>
<linearGradient id="paint10_linear_2004_2" x1="509.387" y1="221.989" x2="509.387" y2="208.088" gradientUnits="userSpaceOnUse">
<stop stop-color="#FFCD28"/>
<stop offset="0.2294" stop-color="#E38805"/>
<stop offset="0.711" stop-color="#AF3115"/>
<stop offset="1" stop-color="#E38805"/>
</linearGradient>
<linearGradient id="paint11_linear_2004_2" x1="408.387" y1="243.271" x2="408.387" y2="126.507" gradientUnits="userSpaceOnUse">
<stop stop-color="#FFCD28"/>
<stop offset="0.2294" stop-color="#E38805"/>
<stop offset="0.711" stop-color="#AF3115"/>
<stop offset="1" stop-color="#E38805"/>
</linearGradient>
<linearGradient id="paint12_linear_2004_2" x1="427.387" y1="237.963" x2="427.387" y2="135.099" gradientUnits="userSpaceOnUse">
<stop stop-color="#FFCD28"/>
<stop offset="0.2294" stop-color="#E38805"/>
<stop offset="0.711" stop-color="#AF3115"/>
<stop offset="1" stop-color="#E38805"/>
</linearGradient>
<linearGradient id="paint13_linear_2004_2" x1="238.388" y1="284.318" x2="238.388" y2="120.294" gradientUnits="userSpaceOnUse">
<stop stop-color="#FFCD28"/>
<stop offset="0.2294" stop-color="#E38805"/>
<stop offset="0.711" stop-color="#AF3115"/>
<stop offset="1" stop-color="#E38805"/>
</linearGradient>
<linearGradient id="paint14_linear_2004_2" x1="154.888" y1="266.605" x2="154.888" y2="224.905" gradientUnits="userSpaceOnUse">
<stop stop-color="#FFCD28"/>
<stop offset="0.2294" stop-color="#E38805"/>
<stop offset="0.711" stop-color="#AF3115"/>
<stop offset="1" stop-color="#E38805"/>
</linearGradient>
<linearGradient id="paint15_linear_2004_2" x1="174.888" y1="281.653" x2="174.888" y2="192.692" gradientUnits="userSpaceOnUse">
<stop stop-color="#FFCD28"/>
<stop offset="0.2294" stop-color="#E38805"/>
<stop offset="0.711" stop-color="#AF3115"/>
<stop offset="1" stop-color="#E38805"/>
</linearGradient>
<linearGradient id="paint16_linear_2004_2" x1="189.888" y1="287.456" x2="189.888" y2="162.352" gradientUnits="userSpaceOnUse">
<stop stop-color="#FFCD28"/>
<stop offset="0.2294" stop-color="#E38805"/>
<stop offset="0.711" stop-color="#AF3115"/>
<stop offset="1" stop-color="#E38805"/>
</linearGradient>
<linearGradient id="paint17_linear_2004_2" x1="219.388" y1="289.319" x2="219.388" y2="125.295" gradientUnits="userSpaceOnUse">
<stop stop-color="#FFCD28"/>
<stop offset="0.2294" stop-color="#E38805"/>
<stop offset="0.711" stop-color="#AF3115"/>
<stop offset="1" stop-color="#E38805"/>
</linearGradient>
<linearGradient id="paint18_linear_2004_2" x1="268.387" y1="275.38" x2="268.387" y2="108.576" gradientUnits="userSpaceOnUse">
<stop stop-color="#FFCD28"/>
<stop offset="0.2294" stop-color="#E38805"/>
<stop offset="0.711" stop-color="#AF3115"/>
<stop offset="1" stop-color="#E38805"/>
</linearGradient>
<linearGradient id="paint19_linear_2004_2" x1="282.887" y1="274.565" x2="282.887" y2="99.4214" gradientUnits="userSpaceOnUse">
<stop stop-color="#FFCD28"/>
<stop offset="0.2294" stop-color="#E38805"/>
<stop offset="0.711" stop-color="#AF3115"/>
<stop offset="1" stop-color="#E38805"/>
</linearGradient>
<linearGradient id="paint20_linear_2004_2" x1="253.888" y1="279.319" x2="253.888" y2="115.295" gradientUnits="userSpaceOnUse">
<stop stop-color="#FFCD28"/>
<stop offset="0.2294" stop-color="#E38805"/>
<stop offset="0.711" stop-color="#AF3115"/>
<stop offset="1" stop-color="#E38805"/>
</linearGradient>
<linearGradient id="paint21_linear_2004_2" x1="202.889" y1="292.072" x2="202.889" y2="139.169" gradientUnits="userSpaceOnUse">
<stop stop-color="#FFCD28"/>
<stop offset="0.2294" stop-color="#E38805"/>
<stop offset="0.711" stop-color="#AF3115"/>
<stop offset="1" stop-color="#E38805"/>
</linearGradient>
<linearGradient id="paint22_linear_2004_2" x1="297.388" y1="271.628" x2="297.388" y2="93.7038" gradientUnits="userSpaceOnUse">
<stop stop-color="#FFCD28"/>
<stop offset="0.2294" stop-color="#E38805"/>
<stop offset="0.711" stop-color="#AF3115"/>
<stop offset="1" stop-color="#E38805"/>
</linearGradient>
<linearGradient id="paint23_linear_2004_2" x1="451.887" y1="244.271" x2="451.887" y2="127.507" gradientUnits="userSpaceOnUse">
<stop stop-color="#FFCD28"/>
<stop offset="0.2294" stop-color="#E38805"/>
<stop offset="0.711" stop-color="#AF3115"/>
<stop offset="1" stop-color="#E38805"/>
</linearGradient>
<linearGradient id="paint24_linear_2004_2" x1="318.784" y1="158.722" x2="338.733" y2="306.605" gradientUnits="userSpaceOnUse">
<stop stop-color="white"/>
<stop offset="1" stop-color="#0C0E19" stop-opacity="0"/>
</linearGradient>
<linearGradient id="paint25_linear_2004_2" x1="493.594" y1="218.556" x2="494.676" y2="268.838" gradientUnits="userSpaceOnUse">
<stop stop-color="white"/>
<stop offset="1" stop-color="#0C0E19" stop-opacity="0"/>
</linearGradient>
<linearGradient id="paint26_linear_2004_2" x1="376.398" y1="159.464" x2="354.858" y2="286.238" gradientUnits="userSpaceOnUse">
<stop stop-color="#FFCD28"/>
<stop offset="0.668" stop-color="#E38805"/>
<stop offset="1" stop-color="#AF3115"/>
</linearGradient>
<linearGradient id="paint27_linear_2004_2" x1="219.805" y1="245.674" x2="356.67" y2="167.669" gradientUnits="userSpaceOnUse">
<stop stop-color="#FFCD28"/>
<stop offset="0.668" stop-color="#E38805"/>
<stop offset="1" stop-color="#AF3115"/>
</linearGradient>
<linearGradient id="paint28_linear_2004_2" x1="569.348" y1="181.403" x2="562.078" y2="411.872" gradientUnits="userSpaceOnUse">
<stop stop-color="#808080"/>
<stop offset="0.461" stop-color="white"/>
<stop offset="1" stop-color="#808080"/>
</linearGradient>
<linearGradient id="paint29_linear_2004_2" x1="47.4157" y1="172.19" x2="40.1972" y2="391.221" gradientUnits="userSpaceOnUse">
<stop stop-color="#808080"/>
<stop offset="0.461" stop-color="white"/>
<stop offset="1" stop-color="#808080"/>
</linearGradient>
<linearGradient id="paint30_linear_2004_2" x1="310.675" y1="166.985" x2="302.674" y2="406.72" gradientUnits="userSpaceOnUse">
<stop stop-color="#808080"/>
<stop offset="0.461" stop-color="white"/>
<stop offset="1" stop-color="#808080"/>
</linearGradient>
<linearGradient id="paint31_linear_2004_2" x1="358.349" y1="242.891" x2="289.987" y2="360.844" gradientUnits="userSpaceOnUse">
<stop stop-color="#808080"/>
<stop offset="0.461" stop-color="white"/>
<stop offset="1" stop-color="#808080"/>
</linearGradient>
<linearGradient id="paint32_linear_2004_2" x1="425.906" y1="323.605" x2="205.056" y2="329.686" gradientUnits="userSpaceOnUse">
<stop stop-color="#FFCD28"/>
<stop offset="0.668" stop-color="#E38805"/>
<stop offset="1" stop-color="#AF3115"/>
</linearGradient>
<linearGradient id="paint33_linear_2004_2" x1="156.65" y1="195.812" x2="156.65" y2="345.02" gradientUnits="userSpaceOnUse">
<stop stop-color="#FFCD28"/>
<stop offset="0.668" stop-color="#E38805"/>
<stop offset="1" stop-color="#AF3115"/>
</linearGradient>
<linearGradient id="paint34_linear_2004_2" x1="493.013" y1="195.812" x2="493.013" y2="345.02" gradientUnits="userSpaceOnUse">
<stop stop-color="#FFCD28"/>
<stop offset="0.668" stop-color="#E38805"/>
<stop offset="1" stop-color="#AF3115"/>
</linearGradient>
<linearGradient id="paint35_linear_2004_2" x1="74.3077" y1="381.398" x2="585.971" y2="381.398" gradientUnits="userSpaceOnUse">
<stop stop-color="white"/>
<stop offset="1" stop-color="#999999"/>
</linearGradient>
<linearGradient id="paint36_linear_2004_2" x1="230.419" y1="454.313" x2="439.772" y2="454.313" gradientUnits="userSpaceOnUse">
<stop stop-color="white"/>
<stop offset="1" stop-color="#999999"/>
</linearGradient>
<clipPath id="clip0_2004_2">
<rect width="597" height="597" fill="white"/>
</clipPath>
</defs>
</svg>
